# xmcd
#
# Track frame offsets:
#	150
#	23974
#	45704
#	60299
#	88012
#	132410
#	160934
#	190472
#	218533
#	235851
#	261894
#	294643
#
# Disc length: 4369 seconds
#
# Revision: 0
# Processed by: cddbd v1.5.2PL0 Copyright (c) Steve Scherf et al.
# Submitted via: dBpowerAMP V4.0
#
DISCID=a9110f0c
DTITLE=Jesus Volt - Hallelujah Motherfuckers!
DYEAR=2008
DGENRE=Blues
TTITLE0=Black bone dust
TTITLE1=I won't get down
TTITLE2=Only the devil
TTITLE3=Mannish boy
TTITLE4=Hometown blues
TTITLE5=Jig up and down
TTITLE6=Jungle blues
TTITLE7=Up in flames
TTITLE8=John the revelator
TTITLE9=Creeping kingsnake
TTITLE10=Conservative jackass blues
TTITLE11=The cornbread
EXTD=
EXTT0=
EXTT1=
EXTT2=
EXTT3=
EXTT4=
EXTT5=
EXTT6=
EXTT7=
EXTT8=
EXTT9=
EXTT10=
EXTT11=
PLAYORDER=
